<svg xmlns="http://www.w3.org/2000/svg" version="1.1" xmlns:xlink="http://www.w3.org/1999/xlink" xmlns:svgjs="http://svgjs.dev/svgjs" width="1000" height="623" viewBox="0 0 1000 623"><g transform="matrix(1,0,0,1,-0.6060606060606233,0.2522267206477977)"><svg viewBox="0 0 396 247" data-background-color="#ffffff" preserveAspectRatio="xMidYMid meet" height="623" width="1000" xmlns="http://www.w3.org/2000/svg" xmlns:xlink="http://www.w3.org/1999/xlink"><g id="tight-bounds" transform="matrix(1,0,0,1,0.2400000000000091,-0.09999999999999432)"><svg viewBox="0 0 395.52 247.2" height="247.2" width="395.52"><g><svg></svg></g><g><svg viewBox="0 0 395.52 247.2" height="247.2" width="395.52"><g transform="matrix(1,0,0,1,75.54432,67.86274113577275)"><svg viewBox="0 0 244.43135999999998 111.47451772845447" height="111.47451772845447" width="244.43135999999998"><g><svg viewBox="0 0 244.43135999999998 111.47451772845447" height="111.47451772845447" width="244.43135999999998"><g><svg viewBox="0 0 244.43135999999998 111.47451772845447" height="111.47451772845447" width="244.43135999999998"><g><svg viewBox="0 0 244.43135999999998 111.47451772845447" height="111.47451772845447" width="244.43135999999998"><g id="textblocktransform"><svg viewBox="0 0 244.43135999999998 111.47451772845447" height="111.47451772845447" width="244.43135999999998" id="textblock"><g><svg viewBox="0 0 244.43135999999998 78.85225849368742" height="78.85225849368742" width="244.43135999999998"><g transform="matrix(1,0,0,1,0,0)"><svg width="244.43135999999998" viewBox="0.9500000476837158 -36.349998474121094 114.84000396728516 37.04999923706055" height="78.85225849368742" data-palette-color="#2257bf"><path d="M26.05-36L35.05-36 28.75 0 19.7 0 22-13 12.25-13 10 0 0.95 0 7.3-36 16.3-36 13.6-20.8 23.35-20.8 26.05-36ZM42.15-36L56.65-36Q62.35-36 64.75-33.5L64.75-33.5Q66.55-31.6 66.55-28.7L66.55-28.7Q66.55-27.7 66.35-26.6L66.35-26.6 65.65-22.7Q65.05-19.45 63.57-17.45 62.1-15.45 60.3-14.6L60.3-14.6 64.85 0 54.75 0 50.55-13.45 47.45-13.45 45.4 0 35.8 0 42.15-36ZM53.5-28.2L53.5-28.2 49.75-28.2 48.45-19.5 51.95-19.5Q54.6-19.5 55.75-20.78 56.9-22.05 56.9-24.15L56.9-24.15Q56.9-28.2 53.5-28.2ZM74.95-36L83.95-36 77.65 0 68.6 0 74.95-36ZM94.24-10.25L94.24-10.25Q94.24-6.8 99.22-6.8 104.19-6.8 104.19-9.9L104.19-9.9Q104.19-11.55 102.49-12.6 100.79-13.65 98.37-14.35 95.94-15.05 93.52-15.98 91.09-16.9 89.39-18.88 87.69-20.85 87.69-23.8L87.69-23.8Q87.69-36.35 103.84-36.35L103.84-36.35Q109.74-36.35 112.77-34.13 115.79-31.9 115.79-27.95L115.79-27.95Q115.79-26.5 115.42-25.18 115.04-23.85 114.64-23.3L114.64-23.3 114.24-22.7 105.39-22.7Q106.49-23.85 106.49-25.6L106.49-25.6Q106.49-28.85 102.24-28.85L102.24-28.85Q96.89-28.85 96.89-25.45L96.89-25.45Q96.89-23.75 98.59-22.75 100.29-21.75 102.72-21.18 105.14-20.6 107.59-19.75 110.04-18.9 111.74-16.93 113.44-14.95 113.44-11.8L113.44-11.8Q113.44-5.45 109.64-2.38 105.84 0.7 97.94 0.7 90.04 0.7 87.14-2.1L87.14-2.1Q84.99-4.2 84.99-7.9L84.99-7.9Q84.99-9.3 85.29-10.95L85.29-10.95 85.44-11.75 94.44-11.75 94.34-11.15Q94.24-10.65 94.24-10.25Z" opacity="1" transform="matrix(1,0,0,1,0,0)" fill="#2257bf" class="undefined-text-0" data-fill-palette-color="primary" id="text-0"></path></svg></g></svg></g><g transform="matrix(1,0,0,1,155.727219456,97.46738426984317)"><svg viewBox="0 0 88.704140544 14.007133458611309" height="14.007133458611309" width="88.704140544"><g transform="matrix(1,0,0,1,0,0)"><svg width="88.704140544" viewBox="3.6500000953674316 -37.08000183105469 287.8000183105469 45.46000289916992" height="14.007133458611309" data-palette-color="#000000"><path d="M3.65-36.15L26.45-36.15 26.45-30.8 10.43-30.8 10.43-20.78 23.05-20.78 23.05-15.6 10.43-15.6 10.43-5.38 26.45-5.38 26.45 0 3.65 0 3.65-36.15ZM38.1 0L31.92 0 31.92-25.65 35.7-25.65Q36.9-25.65 37.27-24.53L37.27-24.53 37.7-22.5Q38.47-23.3 39.34-23.95 40.2-24.6 41.16-25.08 42.12-25.55 43.22-25.8 44.32-26.05 45.62-26.05L45.62-26.05Q47.72-26.05 49.35-25.34 50.97-24.63 52.06-23.34 53.15-22.05 53.71-20.26 54.27-18.48 54.27-16.32L54.27-16.32 54.27 0 48.1 0 48.1-16.32Q48.1-18.68 47.01-19.96 45.92-21.25 43.75-21.25L43.75-21.25Q42.15-21.25 40.75-20.53 39.35-19.8 38.1-18.55L38.1-18.55 38.1 0ZM68.77 0.4L68.77 0.4Q65.45 0.4 63.65-1.49 61.84-3.38 61.84-6.7L61.84-6.7 61.84-21.03 59.25-21.03Q58.75-21.03 58.38-21.35 58.02-21.68 58.02-22.33L58.02-22.33 58.02-24.78 62.15-25.45 63.45-32.45Q63.55-32.95 63.91-33.23 64.27-33.5 64.82-33.5L64.82-33.5 68.02-33.5 68.02-25.43 74.77-25.43 74.77-21.03 68.02-21.03 68.02-7.13Q68.02-5.93 68.62-5.25 69.22-4.58 70.22-4.58L70.22-4.58Q70.8-4.58 71.18-4.71 71.57-4.85 71.86-5 72.15-5.15 72.37-5.29 72.59-5.43 72.82-5.43L72.82-5.43Q73.09-5.43 73.27-5.29 73.45-5.15 73.65-4.88L73.65-4.88 75.5-1.88Q74.15-0.75 72.4-0.18 70.65 0.4 68.77 0.4ZM90.29-26.05L90.29-26.05Q92.72-26.05 94.76-25.28 96.79-24.5 98.27-23.01 99.74-21.53 100.57-19.36 101.39-17.2 101.39-14.43L101.39-14.43Q101.39-13.73 101.33-13.26 101.27-12.8 101.11-12.54 100.94-12.28 100.67-12.16 100.39-12.05 99.97-12.05L99.97-12.05 84.12-12.05Q84.39-8.1 86.24-6.25 88.09-4.4 91.14-4.4L91.14-4.4Q92.64-4.4 93.73-4.75 94.82-5.1 95.63-5.53 96.44-5.95 97.06-6.3 97.67-6.65 98.24-6.65L98.24-6.65Q98.62-6.65 98.89-6.5 99.17-6.35 99.37-6.08L99.37-6.08 101.17-3.83Q100.14-2.63 98.87-1.81 97.59-1 96.21-0.51 94.82-0.03 93.38 0.18 91.94 0.38 90.59 0.38L90.59 0.38Q87.92 0.38 85.62-0.51 83.32-1.4 81.62-3.14 79.92-4.88 78.94-7.44 77.97-10 77.97-13.38L77.97-13.38Q77.97-16 78.82-18.31 79.67-20.63 81.26-22.34 82.84-24.05 85.13-25.05 87.42-26.05 90.29-26.05ZM90.42-21.63L90.42-21.63Q87.72-21.63 86.19-20.1 84.67-18.57 84.24-15.78L84.24-15.78 95.84-15.78Q95.84-16.98 95.52-18.04 95.19-19.1 94.52-19.9 93.84-20.7 92.82-21.16 91.79-21.63 90.42-21.63ZM112.59 0L106.42 0 106.42-25.65 110.04-25.65Q110.99-25.65 111.37-25.3 111.74-24.95 111.87-24.1L111.87-24.1 112.24-21Q113.62-23.38 115.47-24.75 117.32-26.13 119.62-26.13L119.62-26.13Q121.52-26.13 122.77-25.25L122.77-25.25 121.97-20.63Q121.89-20.18 121.64-19.99 121.39-19.8 120.97-19.8L120.97-19.8Q120.59-19.8 119.94-19.98 119.29-20.15 118.22-20.15L118.22-20.15Q116.29-20.15 114.92-19.09 113.54-18.03 112.59-15.98L112.59-15.98 112.59 0ZM133.01 8.38L126.84 8.38 126.84-25.65 130.61-25.65Q131.21-25.65 131.64-25.38 132.06-25.1 132.19-24.53L132.19-24.53 132.69-22.15Q134.24-23.93 136.25-25.03 138.26-26.13 140.96-26.13L140.96-26.13Q143.06-26.13 144.8-25.25 146.54-24.38 147.8-22.71 149.06-21.05 149.75-18.61 150.44-16.18 150.44-13.03L150.44-13.03Q150.44-10.15 149.66-7.7 148.89-5.25 147.45-3.45 146.01-1.65 143.98-0.64 141.94 0.38 139.41 0.38L139.41 0.38Q137.24 0.38 135.73-0.29 134.21-0.95 133.01-2.13L133.01-2.13 133.01 8.38ZM138.84-21.25L138.84-21.25Q136.91-21.25 135.55-20.44 134.19-19.63 133.01-18.15L133.01-18.15 133.01-6.65Q134.06-5.35 135.3-4.84 136.54-4.33 137.96-4.33L137.96-4.33Q139.36-4.33 140.5-4.85 141.64-5.38 142.43-6.45 143.21-7.53 143.64-9.16 144.06-10.8 144.06-13.03L144.06-13.03Q144.06-15.28 143.7-16.84 143.34-18.4 142.66-19.38 141.99-20.35 141.03-20.8 140.06-21.25 138.84-21.25ZM161.28 0L155.11 0 155.11-25.65 158.74-25.65Q159.69-25.65 160.06-25.3 160.44-24.95 160.56-24.1L160.56-24.1 160.94-21Q162.31-23.38 164.16-24.75 166.01-26.13 168.31-26.13L168.31-26.13Q170.21-26.13 171.46-25.25L171.46-25.25 170.66-20.63Q170.59-20.18 170.34-19.99 170.09-19.8 169.66-19.8L169.66-19.8Q169.28-19.8 168.63-19.98 167.99-20.15 166.91-20.15L166.91-20.15Q164.99-20.15 163.61-19.09 162.24-18.03 161.28-15.98L161.28-15.98 161.28 0ZM175.93-25.65L182.11-25.65 182.11 0 175.93 0 175.93-25.65ZM183.03-33.13L183.03-33.13Q183.03-32.33 182.71-31.63 182.38-30.93 181.85-30.4 181.31-29.88 180.58-29.56 179.86-29.25 179.03-29.25L179.03-29.25Q178.23-29.25 177.52-29.56 176.81-29.88 176.28-30.4 175.76-30.93 175.45-31.63 175.13-32.33 175.13-33.13L175.13-33.13Q175.13-33.95 175.45-34.68 175.76-35.4 176.28-35.93 176.81-36.45 177.52-36.76 178.23-37.08 179.03-37.08L179.03-37.08Q179.86-37.08 180.58-36.76 181.31-36.45 181.85-35.93 182.38-35.4 182.71-34.68 183.03-33.95 183.03-33.13ZM205.71-22.88L204.31-20.65Q204.06-20.25 203.78-20.09 203.51-19.93 203.08-19.93L203.08-19.93Q202.63-19.93 202.12-20.18 201.61-20.43 200.93-20.74 200.26-21.05 199.39-21.3 198.53-21.55 197.36-21.55L197.36-21.55Q195.53-21.55 194.48-20.78 193.43-20 193.43-18.75L193.43-18.75Q193.43-17.93 193.97-17.36 194.51-16.8 195.39-16.38 196.28-15.95 197.41-15.61 198.53-15.28 199.71-14.88 200.88-14.48 202.01-13.96 203.13-13.45 204.02-12.66 204.91-11.88 205.44-10.78 205.98-9.68 205.98-8.13L205.98-8.13Q205.98-6.28 205.31-4.71 204.63-3.15 203.33-2.01 202.03-0.88 200.12-0.24 198.21 0.4 195.73 0.4L195.73 0.4Q194.41 0.4 193.14 0.16 191.88-0.08 190.72-0.5 189.56-0.93 188.57-1.5 187.58-2.08 186.83-2.75L186.83-2.75 188.26-5.1Q188.53-5.53 188.91-5.75 189.28-5.98 189.86-5.98L189.86-5.98Q190.43-5.98 190.94-5.65 191.46-5.33 192.13-4.95 192.81-4.58 193.72-4.25 194.63-3.93 196.03-3.93L196.03-3.93Q197.13-3.93 197.92-4.19 198.71-4.45 199.22-4.88 199.73-5.3 199.97-5.86 200.21-6.43 200.21-7.03L200.21-7.03Q200.21-7.93 199.67-8.5 199.13-9.08 198.24-9.5 197.36-9.93 196.22-10.26 195.08-10.6 193.89-11 192.71-11.4 191.57-11.94 190.43-12.48 189.54-13.3 188.66-14.13 188.12-15.33 187.58-16.53 187.58-18.23L187.58-18.23Q187.58-19.8 188.21-21.23 188.83-22.65 190.04-23.71 191.26-24.78 193.07-25.41 194.88-26.05 197.26-26.05L197.26-26.05Q199.91-26.05 202.08-25.18 204.26-24.3 205.71-22.88L205.71-22.88ZM221.53-26.05L221.53-26.05Q223.95-26.05 225.99-25.28 228.03-24.5 229.5-23.01 230.98-21.53 231.8-19.36 232.63-17.2 232.63-14.43L232.63-14.43Q232.63-13.73 232.57-13.26 232.5-12.8 232.34-12.54 232.18-12.28 231.9-12.16 231.63-12.05 231.2-12.05L231.2-12.05 215.35-12.05Q215.63-8.1 217.48-6.25 219.33-4.4 222.38-4.4L222.38-4.4Q223.88-4.4 224.97-4.75 226.05-5.1 226.87-5.53 227.68-5.95 228.29-6.3 228.9-6.65 229.48-6.65L229.48-6.65Q229.85-6.65 230.13-6.5 230.4-6.35 230.6-6.08L230.6-6.08 232.4-3.83Q231.38-2.63 230.1-1.81 228.83-1 227.44-0.51 226.05-0.03 224.62 0.18 223.18 0.38 221.83 0.38L221.83 0.38Q219.15 0.38 216.85-0.51 214.55-1.4 212.85-3.14 211.15-4.88 210.18-7.44 209.2-10 209.2-13.38L209.2-13.38Q209.2-16 210.05-18.31 210.9-20.63 212.49-22.34 214.08-24.05 216.37-25.05 218.65-26.05 221.53-26.05ZM221.65-21.63L221.65-21.63Q218.95-21.63 217.43-20.1 215.9-18.57 215.48-15.78L215.48-15.78 227.08-15.78Q227.08-16.98 226.75-18.04 226.43-19.1 225.75-19.9 225.08-20.7 224.05-21.16 223.03-21.63 221.65-21.63ZM251.1-22.58L251.1-22.58Q253.15-22.58 255.09-21.9 257.03-21.23 258.5-19.86 259.98-18.5 260.88-16.48 261.78-14.45 261.78-11.75L261.78-11.75Q261.78-9.22 260.85-7.01 259.93-4.8 258.25-3.15 256.58-1.5 254.21-0.55 251.85 0.4 249 0.4L249 0.4Q246.1 0.4 243.8-0.53 241.5-1.45 239.88-3.11 238.25-4.78 237.39-7.11 236.53-9.45 236.53-12.3L236.53-12.3Q236.53-14.85 237.56-17.54 238.6-20.23 240.78-23.13L240.78-23.13 249.4-34.7Q249.85-35.3 250.71-35.73 251.58-36.15 252.7-36.15L252.7-36.15 258.2-36.15 247.48-23.03Q247.13-22.6 246.81-22.23 246.5-21.85 246.2-21.45L246.2-21.45Q247.25-21.98 248.46-22.28 249.68-22.58 251.1-22.58ZM242.45-11.35L242.45-11.35Q242.45-9.85 242.86-8.61 243.28-7.38 244.09-6.5 244.9-5.63 246.1-5.14 247.3-4.65 248.88-4.65L248.88-4.65Q250.35-4.65 251.59-5.15 252.83-5.65 253.71-6.55 254.6-7.45 255.1-8.66 255.6-9.88 255.6-11.3L255.6-11.3Q255.6-12.85 255.13-14.09 254.65-15.33 253.78-16.19 252.9-17.05 251.68-17.5 250.45-17.95 248.98-17.95L248.98-17.95Q247.5-17.95 246.3-17.45 245.1-16.95 244.24-16.06 243.38-15.18 242.91-13.96 242.45-12.75 242.45-11.35ZM286.9-36.18L286.9-13.63 291.45-13.63 291.45-10.05Q291.45-9.55 291.12-9.19 290.8-8.83 290.17-8.83L290.17-8.83 286.9-8.83 286.9 0 281.5 0 281.5-8.83 266.25-8.83Q265.62-8.83 265.15-9.21 264.67-9.6 264.55-10.18L264.55-10.18 263.92-13.3 281.05-36.18 286.9-36.18ZM281.5-13.63L281.5-25.45Q281.5-26.25 281.55-27.18 281.6-28.1 281.72-29.1L281.72-29.1 270.5-13.63 281.5-13.63Z" opacity="1" transform="matrix(1,0,0,1,0,0)" fill="#000000" class="undefined-text-1" data-fill-palette-color="secondary" id="text-1"></path></svg></g></svg></g></svg></g></svg></g></svg></g></svg></g></svg></g><g><path d="M245.816 0c68.262 0 123.6 55.338 123.6 123.6 0 68.262-55.338 123.6-123.6 123.6-44.397 0-83.326-23.408-105.121-58.555l4.208 0c21.375 33.093 58.585 55 100.913 55 66.299 0 120.045-53.746 120.044-120.045 0-66.299-53.746-120.045-120.044-120.045-42.327 0-79.537 21.906-100.913 55l-4.208 0c21.794-35.147 60.724-58.555 105.121-58.555z" fill="#2257bf" stroke="transparent" data-fill-palette-color="tertiary"></path></g></svg></g><defs></defs></svg><rect width="395.52" height="247.2" fill="none" stroke="none" visibility="hidden"></rect></g></svg></g></svg>